<svg width="18" height="22" viewBox="0 0 18 22" fill="none" xmlns="http://www.w3.org/2000/svg">
<path d="M12.751 5C12.751 5.99456 12.3559 6.94839 11.6526 7.65165C10.9493 8.35491 9.99552 8.75 9.00095 8.75C8.00639 8.75 7.05256 8.35491 6.3493 7.65165C5.64604 6.94839 5.25095 5.99456 5.25095 5C5.25095 4.00544 5.64604 3.05161 6.3493 2.34835C7.05256 1.64509 8.00639 1.25 9.00095 1.25C9.99552 1.25 10.9493 1.64509 11.6526 2.34835C12.3559 3.05161 12.751 4.00544 12.751 5V5ZM1.50195 19.118C1.53409 17.1504 2.33829 15.2742 3.74113 13.894C5.14397 12.5139 7.03304 11.7405 9.00095 11.7405C10.9689 11.7405 12.8579 12.5139 14.2608 13.894C15.6636 15.2742 16.4678 17.1504 16.5 19.118C14.1473 20.1968 11.5891 20.7535 9.00095 20.75C6.32495 20.75 3.78495 20.166 1.50195 19.118Z" stroke="#0554F2" stroke-width="1.5" stroke-linecap="round" stroke-linejoin="round"/>
</svg>
