<svg width="18" height="18" viewBox="0 0 18 18" fill="none" xmlns="http://www.w3.org/2000/svg">
<path d="M17.732 1.73399C17.732 1.73399 17.07 0.73999 16.98 0.73999C12.418 3.53199 9.142 7.07399 7.804 8.64199L4.376 5.95399C4.286 5.88999 2.414 7.55999 2.452 7.60999L8.696 13.956C8.734 14.008 8.798 14.032 8.874 14.032C8.886 14.032 8.9 14.032 8.912 14.02C9.002 14.008 9.078 13.944 9.104 13.868C10.11 11.294 13.424 5.91599 17.668 2.01599C17.746 1.95199 17.77 1.83599 17.732 1.73399ZM15.538 15.15C15.538 15.81 14.998 16.35 14.338 16.35H2.368C1.708 16.35 1.168 15.81 1.168 15.15V3.17399C1.168 2.51399 1.708 1.97399 2.368 1.97399H12.886C12.886 1.97399 13.294 1.57799 13.894 1.06199H1.45C0.79 1.06199 0.25 1.60199 0.25 2.26199V16.068C0.25 16.728 0.79 17.268 1.45 17.268H15.256C15.916 17.268 16.456 16.728 16.456 16.068V5.03999C16.138 5.31599 15.814 5.58599 15.538 5.77199V15.15Z" fill="#0554F2"/>
</svg>
